HIERARCHY
ROOT Hips
{
  OFFSET -43.3411 73.6987 0
  CHANNELS 6 Xposition Yposition Zposition Zrotation Xrotation Yrotation
  JOINT Bip01_Pelvis
  {
    OFFSET 0 0 0
    CHANNELS 6 Xposition Yposition Zposition Zrotation Xrotation Yrotation
    JOINT BN_Tail_01
    {
      OFFSET -18.6385 -9.591 -2.032e-005
      CHANNELS 6 Xposition Yposition Zposition Zrotation Xrotation Yrotation
      JOINT BN_Tail_02
      {
        OFFSET 20.9743 0 0
        CHANNELS 6 Xposition Yposition Zposition Zrotation Xrotation Yrotation
        JOINT BN_Tail_03
        {
          OFFSET 20.3015 0 0
          CHANNELS 6 Xposition Yposition Zposition Zrotation Xrotation Yrotation
          JOINT BN_Tail_04
          {
            OFFSET 21.6394 -9.91821e-005 0
            CHANNELS 6 Xposition Yposition Zposition Zrotation Xrotation Yrotation
            End Site
            {
              OFFSET 0 0 0
            }
          }
        }
      }
    }
    JOINT Bip01_Spine
    {
      OFFSET 22.1878 -0.659386 3.048e-005
      CHANNELS 6 Xposition Yposition Zposition Zrotation Xrotation Yrotation
      JOINT Bip01_R_Thigh
      {
        OFFSET -22.1873 0.677109 -17.1024
        CHANNELS 6 Xposition Yposition Zposition Zrotation Xrotation Yrotation
        JOINT Bip01_R_Calf
        {
          OFFSET 34.2647 0 0
          CHANNELS 6 Xposition Yposition Zposition Zrotation Xrotation Yrotation
          JOINT Bip01_R_HorseLink
          {
            OFFSET 20.4429 0 0
            CHANNELS 6 Xposition Yposition Zposition Zrotation Xrotation Yrotation
            JOINT Bip01_R_Foot
            {
              OFFSET 16.5673 0 0
              CHANNELS 6 Xposition Yposition Zposition Zrotation Xrotation Yrotation
              JOINT Bip01_R_Toe0
              {
                OFFSET 9.18784 6.94841 0
                CHANNELS 6 Xposition Yposition Zposition Zrotation Xrotation Yrotation
                JOINT Bip01_R_Toe0Nub
                {
                  OFFSET 1.01907 0 0
                  CHANNELS 6 Xposition Yposition Zposition Zrotation Xrotation Yrotation
                  End Site
                  {
                    OFFSET 0 0 0
                  }
                }
              }
            }
          }
        }
      }
      JOINT Bip01_L_Thigh
      {
        OFFSET -22.1873 0.67701 17.1024
        CHANNELS 6 Xposition Yposition Zposition Zrotation Xrotation Yrotation
        JOINT Bip01_L_Calf
        {
          OFFSET 34.2647 0 0
          CHANNELS 6 Xposition Yposition Zposition Zrotation Xrotation Yrotation
          JOINT Bip01_L_HorseLink
          {
            OFFSET 20.4429 0 0
            CHANNELS 6 Xposition Yposition Zposition Zrotation Xrotation Yrotation
            JOINT Bip01_L_Foot
            {
              OFFSET 16.5673 0 0
              CHANNELS 6 Xposition Yposition Zposition Zrotation Xrotation Yrotation
              JOINT Bip01_L_Toe0
              {
                OFFSET 9.18784 6.9484 1.14441e-005
                CHANNELS 6 Xposition Yposition Zposition Zrotation Xrotation Yrotation
                JOINT Bip01_L_Toe0Nub
                {
                  OFFSET 1.01907 0 0
                  CHANNELS 6 Xposition Yposition Zposition Zrotation Xrotation Yrotation
                  End Site
                  {
                    OFFSET 0 0 0
                  }
                }
              }
            }
          }
        }
      }
      JOINT Bip01_Spine1
      {
        OFFSET 39.3372 -0.0249863 0
        CHANNELS 6 Xposition Yposition Zposition Zrotation Xrotation Yrotation
        JOINT Bip01_Neck
        {
          OFFSET 34.2837 -15.5934 -4.318e-005
          CHANNELS 6 Xposition Yposition Zposition Zrotation Xrotation Yrotation
          JOINT Bip01_R_Clavicle
          {
            OFFSET -17.9452 -11.3131 -6.19287
            CHANNELS 6 Xposition Yposition Zposition Zrotation Xrotation Yrotation
            JOINT Bip01_R_UpperArm
            {
              OFFSET 17.4439 1.52588e-005 -2.28882e-005
              CHANNELS 6 Xposition Yposition Zposition Zrotation Xrotation Yrotation
              JOINT Bip01_R_Forearm
              {
                OFFSET 30.6251 1.14441e-005 0
                CHANNELS 6 Xposition Yposition Zposition Zrotation Xrotation Yrotation
                JOINT Bip01_R_Hand
                {
                  OFFSET 31.2039 0 0
                  CHANNELS 6 Xposition Yposition Zposition Zrotation Xrotation Yrotation
                  JOINT Bip01_R_Finger0
                  {
                    OFFSET 22.1039 0.255862 -0.37902
                    CHANNELS 6 Xposition Yposition Zposition Zrotation Xrotation Yrotation
                    JOINT Bip01_R_Finger0Nub
                    {
                      OFFSET 12.0552 0 0
                      CHANNELS 6 Xposition Yposition Zposition Zrotation Xrotation Yrotation
                      End Site
                      {
                        OFFSET 0 0 0
                      }
                    }
                  }
                }
              }
            }
          }
          JOINT Bip01_L_Clavicle
          {
            OFFSET -17.9452 -11.3132 6.19281
            CHANNELS 6 Xposition Yposition Zposition Zrotation Xrotation Yrotation
            JOINT Bip01_L_UpperArm
            {
              OFFSET 17.444 0 1.14441e-005
              CHANNELS 6 Xposition Yposition Zposition Zrotation Xrotation Yrotation
              JOINT Bip01_L_Forearm
              {
                OFFSET 30.6251 0 0
                CHANNELS 6 Xposition Yposition Zposition Zrotation Xrotation Yrotation
                JOINT Bip01_L_Hand
                {
                  OFFSET 31.204 0 0
                  CHANNELS 6 Xposition Yposition Zposition Zrotation Xrotation Yrotation
                  JOINT Bip01_L_Finger0
                  {
                    OFFSET 22.1039 0.255856 0.379024
                    CHANNELS 6 Xposition Yposition Zposition Zrotation Xrotation Yrotation
                    JOINT Bip01_L_Finger0Nub
                    {
                      OFFSET 12.0552 0 0
                      CHANNELS 6 Xposition Yposition Zposition Zrotation Xrotation Yrotation
                      End Site
                      {
                        OFFSET 0 0 0
                      }
                    }
                  }
                }
              }
            }
          }
          JOINT Bip01_Neck1
          {
            OFFSET 14.9359 -0.0106278 0
            CHANNELS 6 Xposition Yposition Zposition Zrotation Xrotation Yrotation
            JOINT Bip01_Head
            {
              OFFSET 14.3578 0.505501 0
              CHANNELS 6 Xposition Yposition Zposition Zrotation Xrotation Yrotation
              JOINT BN_Ear_L_01
              {
                OFFSET 3.76994 -2.35629 12.3444
                CHANNELS 6 Xposition Yposition Zposition Zrotation Xrotation Yrotation
                End Site
                {
                  OFFSET 0 0 0
                }
              }
              JOINT BN_Ear_R_01
              {
                OFFSET 3.76995 -2.35622 -12.3442
                CHANNELS 6 Xposition Yposition Zposition Zrotation Xrotation Yrotation
                End Site
                {
                  OFFSET 0 0 0
                }
              }
              JOINT BN_Mouth_01
              {
                OFFSET 11.8395 10.8645 1.27e-005
                CHANNELS 6 Xposition Yposition Zposition Zrotation Xrotation Yrotation
                JOINT BN_Tongue_01
                {
                  OFFSET 9.73752 3.21674 1.016e-005
                  CHANNELS 6 Xposition Yposition Zposition Zrotation Xrotation Yrotation
                  JOINT BN_Tongue_02
                  {
                    OFFSET 9.04304 0.053505 0
                    CHANNELS 6 Xposition Yposition Zposition Zrotation Xrotation Yrotation
                    End Site
                    {
                      OFFSET 0 0 0
                    }
                  }
                }
                JOINT BN_Beard_01
                {
                  OFFSET 6.93466 -0.751793 0
                  CHANNELS 6 Xposition Yposition Zposition Zrotation Xrotation Yrotation
                  JOINT BN_Beard_02
                  {
                    OFFSET 13.0965 1.52588e-005 0
                    CHANNELS 6 Xposition Yposition Zposition Zrotation Xrotation Yrotation
                    End Site
                    {
                      OFFSET 0 0 0
                    }
                  }
                }
              }
              JOINT Bip01_HeadNub
              {
                OFFSET 25.6158 0 0
                CHANNELS 6 Xposition Yposition Zposition Zrotation Xrotation Yrotation
                End Site
                {
                  OFFSET 0 0 0
                }
              }
            }
          }
        }
      }
    }
  }
}
MOTION
Frames:	4
Frame Time:	0.0333333
-43.3411 59.2349 1.37519 93.6159 -81.9825 -177.564 -3.8147e-006 4.76837e-007 -7.10543e-015 -92.9345 -22.518 -81.7382 -18.6385 -9.591 -8.88178e-016 -50.0638 0.327255 179.942 20.9743 -1.42109e-014 -0.00129318 22.7721 0.200623 9.55994 20.3015 -1.52588e-005 -0.000927448 7.73176 2.53046 16.9741 21.6394 1.42109e-014 -0.000839234 10.2956 5.51777 30.7497 20.0428 -9.10545 2.8725 -15.6317 8.37453 -1.21638 -22.181 0.421276 -19.7851 -73.062 -6.82265 170.658 34.2647 7.10543e-015 3.8147e-006 -54.7395 5.48335e-006 8.23679e-006 20.4429 3.8147e-006 -1.90735e-006 73.1282 1.093e-007 -4.66548e-007 16.5673 -2.84217e-014 0 4.22714 6.55724 9.2785 9.18785 6.9484 -3.8147e-006 91.3394 6.90251e-008 3.80268e-007 1.01907 -2.38418e-007 3.8147e-006 5.41844e-008 -1.28812e-008 5.69396e-009 -21.4611 5.40493 14.0472 -122.857 14.4284 -171.068 34.2647 4.76837e-007 5.72205e-006 -106.707 -1.22439e-005 7.00817e-006 20.4429 1.90735e-006 -1.90735e-006 110.353 -2.85686e-006 -9.4782e-006 16.5673 0 1.90735e-006 -29.0248 -5.21231 -4.21418 9.18784 6.9484 3.8147e-006 89.9962 9.85697e-006 -2.23296e-006 1.01907 2.22045e-016 -7.10543e-015 -179.96 -0.00010803 7.15665e-005 39.3311 -0.0241966 -0.000952244 -14.367 2.20452 5.49386 34.2892 -15.5918 2.86102e-006 30.6637 -0.373278 -6.42843 -21.7193 -1.57145 -3.79508 145.252 -33.9749 121.481 17.4439 7.10543e-015 -7.62939e-006 42.1489 6.81146 -101.78 30.6251 7.10544e-015 3.81469e-006 -21.6572 8.52454e-006 3.39186e-006 31.204 -1.77636e-015 5.72204e-006 -37.0164 82.3874 9.55205 22.1039 0.255845 -0.379031 -8.70662 9.65669 -42.2509 12.0552 -3.81471e-006 -2.38418e-007 179.96 1.67882e-005 -3.27065e-006 -20.3324 -1.65176 8.51245 154.596 43.6801 -106.613 17.4439 2.84217e-014 3.8147e-006 39.6617 -48.7679 87.1648 30.6251 -4.29154e-006 3.81469e-006 -63.1325 -8.12724e-006 -1.34694e-005 31.204 -3.8147e-006 -3.81469e-006 -164.764 -73.5035 -163.118 22.1039 0.255862 0.37902 -10.7624 6.07328 10.0774 12.0552 1.90735e-006 0 -1.6142e-007 1.03261e-005 4.23305e-007 14.9354 -0.010643 0.000170231 1.28798 -0.903701 1.44067 14.3578 0.505478 -4.76837e-007 -21.0984 -3.53519 1.67271 3.7699 -2.35629 12.3444 -172.167 32.7141 -81.1406 3.76993 -2.35623 -12.3442 5.88483 29.4885 114.375 11.8394 10.8646 0 -177.002 -3.76322 178.789 9.73749 3.21676 0 -2.85749 1.27795e-007 4.95995e-009 2.55462 -1.10587 -0.153764 4.77834 -2.94618 -1.72235 6.93466 -0.751771 -1.77636e-015 -85.1773 -2.85033 -1.72699 13.0966 1.52588e-005 -4.44089e-016 -7.89265 -1.63549 -12.1212 25.6158 7.6294e-006 -2.38419e-007 -2.20242e-008 1.08717e-006 -3.42622e-008 
-43.374 59.2009 1.37519 93.5934 -81.993 -177.607 -3.8147e-006 4.76837e-007 -7.10543e-015 -92.9265 -22.6562 -82.0259 -18.6385 -9.591 -1.77636e-015 -50.207 0.343874 178.934 20.9743 -1.7053e-013 -0.00129318 22.6132 0.50341 9.11529 20.3015 -1.52588e-005 -0.000927448 7.79842 2.51929 17.0778 21.6394 -9.66338e-013 -0.000839234 9.67911 6.05498 31.56 20.0349 -9.15436 2.77018 -15.8127 8.31886 -0.942546 -22.0998 0.437728 -19.7871 -72.9481 -6.85514 170.654 34.2647 -2.13163e-014 3.8147e-006 -54.7664 -2.70245e-006 1.40185e-005 20.4429 3.8147e-006 -1.90735e-006 73.3077 1.07228e-007 -4.65921e-007 16.5673 2.84217e-014 3.55271e-015 4.1614 6.55594 9.2929 9.18785 6.9484 -3.81486e-006 91.3394 6.86867e-008 3.81632e-007 1.01907 -2.38418e-007 3.8147e-006 5.41844e-008 -1.28812e-008 5.69396e-009 -21.543 5.38706 14.0533 -123.011 14.4477 -171.094 34.2647 4.76837e-007 5.72205e-006 -106.75 -2.93344e-006 9.8037e-006 20.4429 1.90735e-006 -1.90735e-006 110.249 6.55686e-006 -1.2954e-005 16.5673 -7.10543e-015 1.90735e-006 -29.042 -5.22586 -4.17452 9.18784 6.9484 3.81432e-006 89.9962 9.86262e-006 -2.22989e-006 1.01907 2.70895e-014 -7.10543e-015 -179.96 -0.00010803 7.15665e-005 39.3311 -0.0241966 -0.000952244 -14.3413 2.19861 5.49236 34.2892 -15.5918 2.86094e-006 30.7778 -0.372338 -6.40455 -21.7211 -1.52902 -3.80271 145.15 -34.0308 121.527 17.4439 -2.13163e-014 -7.62939e-006 42.192 6.67072 -101.757 30.6251 -7.10544e-015 3.81469e-006 -21.8256 4.78642e-006 1.27126e-005 31.204 -1.77636e-014 5.72204e-006 -36.8455 82.3861 9.38104 22.1039 0.255845 -0.379031 -8.70778 9.65356 -42.181 12.0552 -3.81471e-006 -2.38418e-007 179.96 1.67882e-005 -3.27066e-006 -20.3389 -1.60921 8.50534 154.43 43.5436 -106.606 17.4439 1.42109e-014 3.8147e-006 39.5387 -48.8278 87.2237 30.6251 -4.29154e-006 3.81469e-006 -63.0003 -1.6685e-005 -9.12126e-006 31.204 -3.8147e-006 -3.81469e-006 -164.755 -73.4939 -162.985 22.1039 0.255862 0.37902 -10.7634 6.0728 10.0156 12.0552 1.90735e-006 -4.97379e-014 -1.6142e-007 1.03261e-005 4.23306e-007 14.9354 -0.010643 0.000170231 1.05551 -0.962852 1.49261 14.3578 0.505478 -4.76734e-007 -21.0446 -3.49744 1.58261 3.7699 -2.35629 12.3444 -172.136 32.6185 -80.8579 3.76993 -2.35623 -12.3442 5.95763 29.3817 114.516 11.8394 10.8646 5.96204e-010 -176.987 -3.75277 178.793 9.73749 3.21676 1.55765e-010 -2.85749 1.28572e-007 5.09826e-009 2.55462 -1.10587 -0.153764 4.77834 -2.94618 -1.72235 6.93466 -0.751771 -3.64136e-011 -85.2157 -2.80589 -1.63858 13.0966 1.52588e-005 6.66134e-015 -6.83878 -1.40369 -11.6853 25.6158 7.6294e-006 -2.38419e-007 -2.20242e-008 1.08717e-006 -3.42622e-008 
-43.4661 59.1058 1.37519 93.5456 -82.0255 -177.71 -3.8147e-006 4.76837e-007 0 -92.927 -22.8451 -82.3543 -18.6385 -9.591 -2.66454e-015 -50.6031 0.393694 177.811 20.9743 -4.40537e-013 -0.00129318 22.2643 0.85385 8.79111 20.3015 -1.52588e-005 -0.000927448 7.86383 2.50845 17.1796 21.6394 -1.94689e-012 -0.000839234 9.06651 6.57323 32.3608 20.0203 -9.2218 2.65008 -16.0489 8.28239 -0.629197 -22.0092 0.446519 -19.7841 -72.8728 -6.85864 170.566 34.2647 -1.42109e-014 3.8147e-006 -55.0942 -2.78148e-006 1.40023e-005 20.4429 3.8147e-006 -1.90735e-006 73.8395 1.02046e-007 -4.65566e-007 16.5673 2.84217e-014 3.55271e-015 3.98242 6.54935 9.32721 9.18785 6.9484 -3.81501e-006 91.3394 6.84382e-008 3.82875e-007 1.01907 -2.38419e-007 3.8147e-006 5.41844e-008 -1.28812e-008 5.69396e-009 -21.6357 5.37432 14.0619 -123.229 14.4309 -171.127 34.2647 4.76837e-007 5.72205e-006 -106.971 -2.70185e-006 9.873e-006 20.4429 1.90735e-006 -1.90735e-006 110.243 6.55763e-006 -1.29573e-005 16.5673 -7.10543e-015 1.90735e-006 -29.0973 -5.2546 -4.11343 9.18784 6.9484 3.81349e-006 89.9962 9.86958e-006 -2.22303e-006 1.01907 2.90879e-014 -2.13163e-014 -179.96 -0.00010803 7.15665e-005 39.3311 -0.0241966 -0.000952244 -14.2738 2.18249 5.47814 34.2892 -15.5918 2.86086e-006 30.9427 -0.37268 -6.37318 -21.7236 -1.46757 -3.81341 144.982 -34.1934 121.606 17.4439 -2.84217e-014 -7.62939e-006 42.3107 6.28054 -101.685 30.6251 7.10544e-015 3.81469e-006 -22.2913 4.67075e-006 1.27382e-005 31.204 -5.32908e-014 5.72204e-006 -36.3643 82.3842 8.88969 22.1039 0.255845 -0.379031 -8.70633 9.65506 -41.9939 12.0552 -3.81471e-006 -2.38418e-007 179.96 1.67882e-005 -3.27065e-006 -20.348 -1.54768 8.49538 154.212 43.4485 -106.586 17.4439 -1.42109e-014 3.8147e-006 39.4459 -48.9234 87.2495 30.6251 -4.29154e-006 3.81469e-006 -62.9069 -7.78398e-006 -1.36678e-005 31.204 -3.8147e-006 -3.81469e-006 -164.795 -73.4626 -162.953 22.1039 0.255862 0.37902 -10.7643 6.07232 9.95503 12.0552 1.90735e-006 -3.55271e-014 -1.6142e-007 1.03261e-005 4.23305e-007 14.9354 -0.010643 0.000170231 0.773285 -1.04219 1.57041 14.3578 0.505478 -4.76592e-007 -21.0382 -3.45004 1.46094 3.7699 -2.35629 12.3444 -172.105 32.5249 -80.5809 3.76993 -2.35623 -12.3442 6.02925 29.2771 114.655 11.8394 10.8646 9.42139e-010 -176.941 -3.72263 178.815 9.73749 3.21676 3.52975e-010 -2.85749 1.29568e-007 5.27338e-009 2.55462 -1.10587 -0.153764 4.77834 -2.94618 -1.72235 6.93466 -0.751771 -8.25029e-011 -85.2674 -2.74764 -1.43626 13.0966 1.52588e-005 -8.88179e-016 -5.80723 -1.16871 -11.262 25.6158 7.6294e-006 -2.38419e-007 -2.20242e-008 1.08717e-006 -3.42622e-008 
-43.6158 58.9511 1.37519 93.4496 -82.0786 -177.898 -3.8147e-006 4.76837e-007 0 -92.9386 -23.0929 -82.7382 -18.6385 -9.591 -3.55271e-015 -51.2215 0.471963 176.573 20.9743 -9.52127e-013 -0.00129318 21.7508 1.25696 8.55292 20.3015 -1.52588e-005 -0.000927448 7.92066 2.47843 17.2572 21.6394 -3.0127e-012 -0.000839234 8.50256 6.9419 32.9488 19.9984 -9.30788 2.51073 -16.3465 8.26182 -0.281357 -21.9077 0.448533 -19.7762 -72.8249 -6.88351 170.449 34.2647 0 3.8147e-006 -55.7104 5.34618e-006 8.32704e-006 20.4429 3.8147e-006 -1.90735e-006 74.7037 9.3991e-008 -4.65505e-007 16.5673 2.84217e-014 -3.55271e-015 3.68868 6.53728 9.37873 9.18785 6.9484 -3.8152e-006 91.3394 6.82631e-008 3.84394e-007 1.01907 -2.38418e-007 3.8147e-006 5.41844e-008 -1.28812e-008 5.69396e-009 -21.7405 5.36588 14.073 -123.515 14.4014 -171.171 34.2647 4.76837e-007 5.72205e-006 -107.354 -2.77114e-006 9.85095e-006 20.4429 1.90735e-006 -1.90735e-006 110.335 6.53696e-006 -1.29722e-005 16.5673 1.06581e-014 1.90735e-006 -29.1857 -5.30563 -4.03399 9.18784 6.9484 3.81271e-006 89.9962 -1.40423e-007 -2.21724e-006 1.01907 2.39808e-014 0 -179.96 -0.00010803 7.15665e-005 39.3311 -0.0241966 -0.000952244 -14.1624 2.15087 5.46082 34.2892 -15.5918 2.86081e-006 31.1639 -0.375165 -6.33501 -21.7266 -1.38662 -3.82728 144.76 -34.446 121.729 17.4439 -4.26326e-014 -7.62939e-006 42.5104 5.66037 -101.579 30.6251 -7.10544e-015 3.81469e-006 -23.0261 8.40627e-006 3.55552e-006 31.204 -4.26326e-014 5.72204e-006 -35.559 82.3805 8.06391 22.1039 0.255845 -0.379031 -8.70741 9.65661 -41.6915 12.0552 -3.81471e-006 -2.38418e-007 179.96 1.67882e-005 -3.27065e-006 -20.3595 -1.46662 8.48246 153.942 43.3748 -106.555 17.4439 1.42109e-014 3.8147e-006 39.3797 -49.0516 87.2429 30.6251 -4.29154e-006 3.81469e-006 -62.8495 -1.67082e-005 -9.09554e-006 31.204 -3.8147e-006 -3.81469e-006 -164.892 -73.4033 -163.028 22.1039 0.255862 0.37902 -10.7652 6.07184 9.89387 12.0552 1.90735e-006 -2.13162e-014 -1.6142e-007 1.03261e-005 4.23305e-007 14.9354 -0.010643 0.000170231 0.436374 -1.14085 1.67264 14.3578 0.505478 -4.76425e-007 -21.0753 -3.39513 1.31458 3.7699 -2.35629 12.3444 -172.074 32.4305 -80.3014 3.76993 -2.35623 -12.3442 6.10175 29.1717 114.795 11.8394 10.8646 1.17307e-009 -176.871 -3.78114 178.847 9.73749 3.21676 4.7822e-010 -2.85749 1.30495e-007 5.38458e-009 2.55462 -1.10587 -0.153764 4.77834 -2.94618 -1.72235 6.93466 -0.751771 -1.11768e-010 -85.3258 -2.67479 -1.12864 13.0966 1.52588e-005 -1.77636e-015 -4.50274 -0.894719 -10.1082 25.6158 7.6294e-006 -2.38419e-007 -2.20242e-008 1.08717e-006 -3.42622e-008 
